<svg width="49" height="40" viewBox="0 0 49 40" fill="none" xmlns="http://www.w3.org/2000/svg">
<path d="M16.4618 13.5336L15.3534 18.3169C15.3152 18.4918 15.3165 18.6729 15.3573 18.8472C15.398 19.0215 15.4772 19.1845 15.589 19.3243C15.7008 19.464 15.8424 19.577 16.0035 19.6551C16.1646 19.7331 16.3411 19.7741 16.5201 19.7752C16.6035 19.7842 16.6876 19.7842 16.7709 19.7752L21.5834 18.6669L30.8234 9.46189L25.6668 4.31689L16.4618 13.5336Z" fill="#A8B5B8"/>
<path d="M33.7283 4.85323L30.2866 1.41157C30.0603 1.18644 29.7541 1.06006 29.4349 1.06006C29.1157 1.06006 28.8095 1.18644 28.5833 1.41157L26.6699 3.3249L31.8208 8.47574L33.7341 6.5624C33.8461 6.44986 33.9347 6.31635 33.9951 6.16951C34.0554 6.02266 34.0861 5.86536 34.0856 5.70661C34.0851 5.54786 34.0532 5.39077 33.9919 5.24434C33.9306 5.09791 33.841 4.965 33.7283 4.85323Z" fill="#A8B5B8"/>
<path d="M14.7209 29.684H20.7159V30.839H14.7209V29.684ZM17.7239 31.158C19.1869 31.158 20.2209 31.917 20.2209 33.039C20.2209 34.161 19.1869 34.909 17.7239 34.909C16.2499 34.909 15.2159 34.161 15.2159 33.039C15.2159 31.917 16.2499 31.158 17.7239 31.158ZM17.7239 32.258C17.0639 32.258 16.6239 32.522 16.6239 33.039C16.6239 33.545 17.0639 33.809 17.7239 33.809C18.3729 33.809 18.8239 33.545 18.8239 33.039C18.8239 32.522 18.3729 32.258 17.7239 32.258ZM21.2769 28.793H22.7399V35.184H21.2769V28.793ZM22.3329 31.422H24.0929V32.61H22.3329V31.422ZM15.9419 35.602H22.7399V38.979H21.2769V36.768H15.9419V35.602ZM16.9869 28.738H18.4499V30.344H16.9869V28.738ZM26.118 34.898H27.559V35.756H31.64V34.898H33.092V38.869H26.118V34.898ZM27.559 36.845V37.725H31.64V36.845H27.559ZM25.04 33.237H34.247V34.392H25.04V33.237ZM28.901 28.903H30.155V29.211C30.155 30.982 28.637 32.445 26.008 32.786L25.491 31.653C27.79 31.378 28.901 30.245 28.901 29.211V28.903ZM29.143 28.903H30.397V29.211C30.397 30.234 31.508 31.378 33.796 31.653L33.279 32.786C30.65 32.445 29.143 30.971 29.143 29.211V28.903Z" fill="#A8B5B8"/>
</svg>
