<svg width="17" height="22" viewBox="0 0 17 22" fill="none" xmlns="http://www.w3.org/2000/svg">
<path d="M2.125 22C1.54062 22 1.04054 21.795 0.62475 21.385C0.208958 20.9751 0.000708333 20.4816 0 19.9048V9.42857C0 8.85238 0.20825 8.3593 0.62475 7.94933C1.04125 7.53937 1.54133 7.33403 2.125 7.33333H3.1875V5.2381C3.1875 3.78889 3.70565 2.55375 4.74194 1.53267C5.77823 0.511588 7.03092 0.000699128 8.5 7.15098e-07C9.96908 -0.000697698 11.2221 0.510191 12.2591 1.53267C13.2961 2.55514 13.8139 3.79029 13.8125 5.2381V7.33333H14.875C15.4594 7.33333 15.9598 7.53867 16.3763 7.94933C16.7928 8.36 17.0007 8.85308 17 9.42857V19.9048C17 20.481 16.7921 20.9744 16.3763 21.385C15.9605 21.7957 15.4601 22.0007 14.875 22H2.125ZM8.5 16.7619C9.08437 16.7619 9.58481 16.5569 10.0013 16.147C10.4178 15.737 10.6257 15.2436 10.625 14.6667C10.6243 14.0898 10.4164 13.5967 10.0013 13.1874C9.58623 12.7782 9.08579 12.5728 8.5 12.5714C7.91421 12.57 7.41412 12.7754 6.99975 13.1874C6.58537 13.5995 6.37712 14.0926 6.375 14.6667C6.37287 15.2408 6.58112 15.7342 6.99975 16.147C7.41837 16.5597 7.91846 16.7647 8.5 16.7619ZM5.3125 7.33333H11.6875V5.2381C11.6875 4.36508 11.3776 3.62302 10.7578 3.01191C10.138 2.40079 9.38542 2.09524 8.5 2.09524C7.61458 2.09524 6.86198 2.40079 6.24219 3.01191C5.6224 3.62302 5.3125 4.36508 5.3125 5.2381V7.33333Z" fill="#768890"/>
</svg>
