<svg width="50" height="40" viewBox="0 0 50 40" fill="none" xmlns="http://www.w3.org/2000/svg">
<path fill-rule="evenodd" clip-rule="evenodd" d="M20.7778 4.22222C20.7778 3.10242 21.2226 2.02848 22.0144 1.23666C22.8063 0.44484 23.8802 0 25 0C26.1198 0 27.1937 0.44484 27.9856 1.23666C28.7774 2.02848 29.2222 3.10242 29.2222 4.22222C29.2222 5.34203 28.7774 6.41596 27.9856 7.20778C27.1937 7.9996 26.1198 8.44444 25 8.44444C23.8802 8.44444 22.8063 7.9996 22.0144 7.20778C21.2226 6.41596 20.7778 5.34203 20.7778 4.22222ZM20.7778 10.5556C19.378 10.5556 18.0356 11.1116 17.0458 12.1014C16.056 13.0912 15.5 14.4336 15.5 15.8333C15.5 16.6732 15.8336 17.4786 16.4275 18.0725C17.0214 18.6664 17.8268 19 18.6667 19H31.3333C32.1732 19 32.9786 18.6664 33.5725 18.0725C34.1664 17.4786 34.5 16.6732 34.5 15.8333C34.5 14.4336 33.9439 13.0912 32.9542 12.1014C31.9644 11.1116 30.622 10.5556 29.2222 10.5556H20.7778Z" fill="#F074BA"/>
<path d="M0.0611489 29.739H4.93415V36.493H0.0611489V29.739ZM3.49315 30.894H1.50215V35.349H3.49315V30.894ZM6.25415 28.793H7.72815V38.979H6.25415V28.793ZM7.40915 32.632H9.20215V33.831H7.40915V32.632ZM17.0573 28.771H18.5203V38.99H17.0573V28.771ZM13.0313 29.486C13.552 29.486 14.014 29.6363 14.4173 29.937C14.8206 30.2303 15.136 30.652 15.3633 31.202C15.598 31.7447 15.7153 32.3863 15.7153 33.127C15.7153 33.875 15.598 34.524 15.3633 35.074C15.136 35.6167 14.8206 36.0383 14.4173 36.339C14.014 36.6323 13.552 36.779 13.0313 36.779C12.518 36.779 12.0596 36.6323 11.6563 36.339C11.253 36.0383 10.934 35.6167 10.6993 35.074C10.472 34.524 10.3583 33.875 10.3583 33.127C10.3583 32.3863 10.472 31.7447 10.6993 31.202C10.934 30.652 11.253 30.2303 11.6563 29.937C12.0596 29.6363 12.518 29.486 13.0313 29.486ZM13.0313 30.817C12.782 30.817 12.562 30.905 12.3713 31.081C12.1806 31.257 12.0303 31.5173 11.9203 31.862C11.8176 32.1993 11.7663 32.621 11.7663 33.127C11.7663 33.6257 11.8176 34.051 11.9203 34.403C12.0303 34.7477 12.1806 35.008 12.3713 35.184C12.562 35.36 12.782 35.448 13.0313 35.448C13.288 35.448 13.5116 35.36 13.7023 35.184C13.893 35.008 14.0396 34.7477 14.1423 34.403C14.2523 34.051 14.3073 33.6257 14.3073 33.127C14.3073 32.621 14.2523 32.1993 14.1423 31.862C14.0396 31.5173 13.893 31.257 13.7023 31.081C13.5116 30.905 13.288 30.817 13.0313 30.817ZM27.8384 28.793H29.2244V38.979H27.8384V28.793ZM24.8464 32.5H26.2104V33.776H24.8464V32.5ZM25.8144 28.98H27.1784V38.495H25.8144V28.98ZM20.4574 29.937H25.0994V31.103H20.4574V29.937ZM20.4464 36.669L20.2924 35.47C20.6078 35.47 20.9708 35.47 21.3814 35.47C21.7921 35.4627 22.2211 35.4517 22.6684 35.437C23.1158 35.415 23.5594 35.3893 23.9994 35.36C24.4468 35.3233 24.8648 35.2793 25.2534 35.228L25.3414 36.284C24.8208 36.4013 24.2598 36.4893 23.6584 36.548C23.0571 36.5993 22.4741 36.6323 21.9094 36.647C21.3521 36.6617 20.8644 36.669 20.4464 36.669ZM21.0844 30.674H22.4044V35.789H21.0844V30.674ZM23.1414 30.674H24.4504V35.789H23.1414V30.674ZM37.6956 28.771H39.1586V38.99H37.6956V28.771ZM33.6696 29.486C34.1902 29.486 34.6522 29.6363 35.0556 29.937C35.4589 30.2303 35.7742 30.652 36.0016 31.202C36.2362 31.7447 36.3536 32.3863 36.3536 33.127C36.3536 33.875 36.2362 34.524 36.0016 35.074C35.7742 35.6167 35.4589 36.0383 35.0556 36.339C34.6522 36.6323 34.1902 36.779 33.6696 36.779C33.1562 36.779 32.6979 36.6323 32.2946 36.339C31.8912 36.0383 31.5722 35.6167 31.3376 35.074C31.1102 34.524 30.9966 33.875 30.9966 33.127C30.9966 32.3863 31.1102 31.7447 31.3376 31.202C31.5722 30.652 31.8912 30.2303 32.2946 29.937C32.6979 29.6363 33.1562 29.486 33.6696 29.486ZM33.6696 30.817C33.4202 30.817 33.2002 30.905 33.0096 31.081C32.8189 31.257 32.6686 31.5173 32.5586 31.862C32.4559 32.1993 32.4046 32.621 32.4046 33.127C32.4046 33.6257 32.4559 34.051 32.5586 34.403C32.6686 34.7477 32.8189 35.008 33.0096 35.184C33.2002 35.36 33.4202 35.448 33.6696 35.448C33.9262 35.448 34.1499 35.36 34.3406 35.184C34.5312 35.008 34.6779 34.7477 34.7806 34.403C34.8906 34.051 34.9456 33.6257 34.9456 33.127C34.9456 32.621 34.8906 32.1993 34.7806 31.862C34.6779 31.5173 34.5312 31.257 34.3406 31.081C34.1499 30.905 33.9262 30.817 33.6696 30.817ZM43.4827 30.399H44.6487V31.543C44.6487 32.1297 44.5864 32.7053 44.4617 33.27C44.3444 33.8347 44.1647 34.3663 43.9227 34.865C43.688 35.3563 43.391 35.7927 43.0317 36.174C42.6724 36.548 42.2544 36.845 41.7777 37.065L40.9417 35.91C41.367 35.712 41.7374 35.4553 42.0527 35.14C42.3754 34.8247 42.6394 34.4727 42.8447 34.084C43.0574 33.688 43.215 33.2737 43.3177 32.841C43.4277 32.401 43.4827 31.9683 43.4827 31.543V30.399ZM43.8017 30.399H44.9567V31.543C44.9567 31.9463 45.008 32.357 45.1107 32.775C45.2207 33.1857 45.3784 33.578 45.5837 33.952C45.789 34.3187 46.0494 34.6487 46.3647 34.942C46.68 35.2353 47.054 35.47 47.4867 35.646L46.6837 36.812C46.1997 36.5993 45.778 36.3133 45.4187 35.954C45.0594 35.5947 44.7587 35.1803 44.5167 34.711C44.2747 34.2417 44.095 33.7393 43.9777 33.204C43.8604 32.6613 43.8017 32.1077 43.8017 31.543V30.399ZM41.3487 29.761H47.0687V30.971H41.3487V29.761ZM48.0147 28.793H49.4777V38.979H48.0147V28.793Z" fill="#F074BA"/>
</svg>
