<svg width="116" height="107" viewBox="0 0 116 107" fill="none" xmlns="http://www.w3.org/2000/svg">
<ellipse cx="58" cy="59.5" rx="58" ry="47.5" fill="#5F5F5F"/>
<ellipse cx="58" cy="47.5" rx="58" ry="47.5" fill="#A2A2A2"/>
<path d="M46.75 66C45.7187 66 44.8362 65.6366 44.1025 64.9099C43.3687 64.1831 43.0012 63.3084 43 62.2857V43.7143C43 42.6929 43.3675 41.8188 44.1025 41.092C44.8375 40.3652 45.72 40.0012 46.75 40H48.625V36.2857C48.625 33.7167 49.5394 31.5271 51.3681 29.717C53.1969 27.9069 55.4075 27.0012 58 27C60.5925 26.9988 62.8037 27.9044 64.6337 29.717C66.4637 31.5296 67.3775 33.7191 67.375 36.2857V40H69.25C70.2812 40 71.1644 40.364 71.8994 41.092C72.6344 41.82 73.0012 42.6941 73 43.7143V62.2857C73 63.3071 72.6331 64.1819 71.8994 64.9099C71.1656 65.6379 70.2825 66.0012 69.25 66H46.75ZM58 56.7143C59.0312 56.7143 59.9144 56.3509 60.6494 55.6241C61.3844 54.8974 61.7512 54.0227 61.75 53C61.7487 51.9773 61.3819 51.1032 60.6494 50.3777C59.9169 49.6522 59.0337 49.2882 58 49.2857C56.9662 49.2832 56.0837 49.6472 55.3525 50.3777C54.6212 51.1082 54.2537 51.9823 54.25 53C54.2462 54.0177 54.6137 54.8924 55.3525 55.6241C56.0912 56.3559 56.9737 56.7192 58 56.7143ZM52.375 40H63.625V36.2857C63.625 34.7381 63.0781 33.4226 61.9844 32.3393C60.8906 31.256 59.5625 30.7143 58 30.7143C56.4375 30.7143 55.1094 31.256 54.0156 32.3393C52.9219 33.4226 52.375 34.7381 52.375 36.2857V40Z" fill="#5F5F5F"/>
</svg>
