<svg width="20" height="20" viewBox="0 0 20 20" fill="none" xmlns="http://www.w3.org/2000/svg">
<path d="M17.1 12.7143V12.6143H17H15.7V7.71429C15.7 6.17289 15.0999 4.69422 14.0312 3.60368C12.9624 2.51308 11.5124 1.9 10 1.9C8.48761 1.9 7.03758 2.51308 5.96878 3.60368C4.90005 4.69422 4.3 6.17289 4.3 7.71429V12.6143H3H2.9V12.7143V14.1429V14.2429H3H17H17.1V14.1429V12.7143ZM7.9 15.4714H7.8V15.5714V17V17.1H7.9H12.1H12.2V17V15.5714V15.4714H12.1H7.9ZM14.1 7.71429V12.6143H5.9V7.71429C5.9 6.60352 6.33244 5.53865 7.10157 4.75382C7.87063 3.96906 8.91327 3.52857 10 3.52857C11.0867 3.52857 12.1294 3.96906 12.8984 4.75382C13.6676 5.53865 14.1 6.60352 14.1 7.71429Z" fill="#F074BA" stroke="#F074BA" stroke-width="0.2"/>
</svg>
