<svg width="49" height="41" viewBox="0 0 49 41" fill="none" xmlns="http://www.w3.org/2000/svg">
<path d="M24.5032 5.38496e-07C22.855 -0.000554326 21.2351 0.427697 19.8025 1.24268C18.3699 2.05765 17.174 3.23132 16.3323 4.64835C15.4906 6.06538 15.032 7.67702 15.0016 9.32491C14.9712 10.9728 15.3701 12.6002 16.159 14.0473L15.0349 17.9898C14.9953 18.1283 14.9943 18.2749 15.0318 18.4139C15.0694 18.5529 15.1441 18.679 15.248 18.7786C15.3519 18.8783 15.4811 18.9478 15.6215 18.9795C15.7619 19.0113 15.9084 19.0041 16.045 18.9588L19.7469 17.7254C21.0086 18.4545 22.4211 18.8836 23.8751 18.9794C25.3291 19.0753 26.7858 18.8354 28.1322 18.2782C29.4787 17.7211 30.679 16.8616 31.6402 15.7664C32.6014 14.6712 33.2978 13.3695 33.6754 11.9621C34.0531 10.5547 34.1019 9.07923 33.8181 7.64993C33.5343 6.22063 32.9256 4.87576 32.0389 3.71938C31.1522 2.563 30.0114 1.62609 28.7046 0.98114C27.3979 0.336191 25.9604 0.000487587 24.5032 5.38496e-07ZM21.3365 7.91667C21.3365 7.7067 21.4199 7.50534 21.5684 7.35687C21.7169 7.20841 21.9182 7.125 22.1282 7.125H26.8782C27.0881 7.125 27.2895 7.20841 27.438 7.35687C27.5864 7.50534 27.6698 7.7067 27.6698 7.91667C27.6698 8.12663 27.5864 8.32799 27.438 8.47646C27.2895 8.62493 27.0881 8.70833 26.8782 8.70833H22.1282C21.9182 8.70833 21.7169 8.62493 21.5684 8.47646C21.4199 8.32799 21.3365 8.12663 21.3365 7.91667ZM22.1282 10.2917H25.2949C25.5048 10.2917 25.7062 10.3751 25.8546 10.5235C26.0031 10.672 26.0865 10.8734 26.0865 11.0833C26.0865 11.2933 26.0031 11.4947 25.8546 11.6431C25.7062 11.7916 25.5048 11.875 25.2949 11.875H22.1282C21.9182 11.875 21.7169 11.7916 21.5684 11.6431C21.4199 11.4947 21.3365 11.2933 21.3365 11.0833C21.3365 10.8734 21.4199 10.672 21.5684 10.5235C21.7169 10.3751 21.9182 10.2917 22.1282 10.2917Z" fill="#A8B5B8"/>
<path d="M16.5469 31.729H17.6359V32.026C17.6359 32.5687 17.5589 33.0857 17.4049 33.577C17.2509 34.0683 17.0089 34.501 16.6789 34.875C16.3562 35.249 15.9235 35.535 15.3809 35.733L14.7209 34.655C15.1462 34.4937 15.4909 34.2773 15.7549 34.006C16.0262 33.7273 16.2242 33.4193 16.3489 33.082C16.4809 32.7373 16.5469 32.3853 16.5469 32.026V31.729ZM16.8549 31.729H17.9329V32.026C17.9329 32.3707 17.9952 32.7007 18.1199 33.016C18.2519 33.3313 18.4535 33.6173 18.7249 33.874C18.9962 34.1233 19.3409 34.3213 19.7589 34.468L19.1209 35.557C18.5855 35.3663 18.1492 35.095 17.8119 34.743C17.4819 34.3837 17.2399 33.973 17.0859 33.511C16.9319 33.0417 16.8549 32.5467 16.8549 32.026V31.729ZM14.9959 30.904H19.4619V32.048H14.9959V30.904ZM16.5469 29.914H17.9329V31.487H16.5469V29.914ZM22.0139 29.793H23.4109V36.69H22.0139V29.793ZM20.8479 32.213H22.4539V33.39H20.8479V32.213ZM19.9019 29.958H21.2659V35.788H19.9019V29.958ZM19.1759 36.206H20.4189V36.36C20.4189 36.8073 20.3309 37.229 20.1549 37.625C19.9789 38.0137 19.7222 38.3657 19.3849 38.681C19.0549 38.9963 18.6442 39.2603 18.1529 39.473C17.6615 39.693 17.0969 39.8507 16.4589 39.946L15.9309 38.802C16.3709 38.7433 16.7632 38.659 17.1079 38.549C17.4599 38.4317 17.7642 38.2923 18.0209 38.131C18.2775 37.9623 18.4902 37.7827 18.6589 37.592C18.8349 37.4013 18.9632 37.2033 19.0439 36.998C19.1319 36.7853 19.1759 36.5727 19.1759 36.36V36.206ZM19.3739 36.206H20.6279V36.36C20.6279 36.5727 20.6682 36.7853 20.7489 36.998C20.8295 37.2033 20.9542 37.4013 21.1229 37.592C21.2989 37.7827 21.5152 37.9623 21.7719 38.131C22.0285 38.2923 22.3292 38.4317 22.6739 38.549C23.0259 38.659 23.4219 38.7433 23.8619 38.802L23.3339 39.946C22.7032 39.8507 22.1385 39.693 21.6399 39.473C21.1485 39.2603 20.7342 38.9963 20.3969 38.681C20.0595 38.3657 19.8029 38.0137 19.6269 37.625C19.4582 37.229 19.3739 36.8073 19.3739 36.36V36.206ZM26.217 30.079H27.658V30.937H31.64V30.079H33.092V33.94H26.217V30.079ZM27.658 32.026V32.796H31.64V32.026H27.658ZM25.04 34.743H34.258V35.898H25.04V34.743ZM28.912 33.478H30.375V34.996H28.912V33.478ZM28.901 36.404H30.155V36.58C30.155 37.0127 30.067 37.416 29.891 37.79C29.7223 38.1567 29.4693 38.4867 29.132 38.78C28.7947 39.0733 28.3767 39.319 27.878 39.517C27.3793 39.7223 26.811 39.8653 26.173 39.946L25.656 38.824C26.2207 38.758 26.7083 38.6517 27.119 38.505C27.5297 38.3583 27.867 38.1823 28.131 37.977C28.395 37.7717 28.5893 37.5517 28.714 37.317C28.8387 37.075 28.901 36.8293 28.901 36.58V36.404ZM29.132 36.404H30.386V36.58C30.386 36.8293 30.4483 37.075 30.573 37.317C30.705 37.5517 30.903 37.7717 31.167 37.977C31.431 38.1823 31.7647 38.3583 32.168 38.505C32.5787 38.6517 33.0663 38.758 33.631 38.824L33.125 39.946C32.4797 39.8653 31.9077 39.7223 31.409 39.517C30.9177 39.319 30.5033 39.0733 30.166 38.78C29.8287 38.4867 29.572 38.1567 29.396 37.79C29.22 37.416 29.132 37.0127 29.132 36.58V36.404Z" fill="#A8B5B8"/>
</svg>
