<svg width="48" height="40" viewBox="0 0 48 40" fill="none" xmlns="http://www.w3.org/2000/svg">
<path d="M16 16.83V6.66064C16 6.36113 16.0655 6.07761 16.1966 5.81008C16.3276 5.54254 16.5082 5.3222 16.7383 5.14904L22.8926 0.377901C23.2149 0.125967 23.5829 0 23.9966 0C24.4103 0 24.7806 0.125967 25.1074 0.377901L31.2617 5.14787C31.4926 5.32103 31.6731 5.54176 31.8034 5.81008C31.9345 6.07761 32 6.36113 32 6.66064V16.83C32 17.1436 31.8861 17.417 31.6583 17.6502C31.4305 17.8834 31.1634 18 30.8571 18H26.9897C26.7276 18 26.5082 17.9095 26.3314 17.7286C26.1547 17.5468 26.0663 17.3222 26.0663 17.0547V11.4751C26.0663 11.2075 25.9779 10.9833 25.8011 10.8023C25.6236 10.6206 25.4042 10.5297 25.1429 10.5297H22.8571C22.5958 10.5297 22.3768 10.6206 22.2 10.8023C22.0225 10.9833 21.9337 11.2075 21.9337 11.4751V17.0558C21.9337 17.3234 21.8453 17.5476 21.6686 17.7286C21.4918 17.9095 21.2728 18 21.0114 18H17.1429C16.8366 18 16.5695 17.8834 16.3417 17.6502C16.1139 17.417 16 17.1436 16 16.83Z" fill="#A8B5B8"/>
<path d="M20.4584 35.888H27.4984V38.869H20.4584V35.888ZM26.0684 36.966H21.8884V37.78H26.0684V36.966ZM19.8204 29.497H28.1254V30.608H19.8204V29.497ZM23.9894 30.85C25.0894 30.85 25.9328 30.9747 26.5194 31.224C27.1061 31.466 27.3994 31.8253 27.3994 32.302C27.3994 32.786 27.1061 33.1527 26.5194 33.402C25.9328 33.644 25.0894 33.765 23.9894 33.765C22.9041 33.765 22.0644 33.644 21.4704 33.402C20.8764 33.1527 20.5794 32.786 20.5794 32.302C20.5794 31.8253 20.8764 31.466 21.4704 31.224C22.0644 30.9747 22.9041 30.85 23.9894 30.85ZM23.9894 31.84C23.3661 31.84 22.9041 31.8767 22.6034 31.95C22.3028 32.0233 22.1524 32.1407 22.1524 32.302C22.1524 32.4707 22.3028 32.5917 22.6034 32.665C22.9041 32.7383 23.3661 32.775 23.9894 32.775C24.6274 32.775 25.0931 32.7383 25.3864 32.665C25.6871 32.5917 25.8374 32.4707 25.8374 32.302C25.8374 32.1407 25.6871 32.0233 25.3864 31.95C25.0931 31.8767 24.6274 31.84 23.9894 31.84ZM23.2634 28.716H24.7154V30.289H23.2634V28.716ZM19.3804 34.238H28.5984V35.371H19.3804V34.238ZM23.2634 33.413H24.7154V34.832H23.2634V33.413Z" fill="#A8B5B8"/>
</svg>
